<svg width="186" height="174" viewBox="0 0 186 174" fill="none" xmlns="http://www.w3.org/2000/svg">
<g>
<path d="M88.5 18.5C88.5 13.6125 95.6351 12.1121 98.5 9.5C99.75 8.37 103.65 6.03 104.52 5.65C105.65 5.18 108.77 5.27 109.99 5.8C111.79 6.57 112.99 8.3 112.99 10.1C112.99 11.1644 111.861 13.2949 110.85 13.53C109.329 13.881 103 15.5 99.94 16.6C98.5838 16.8796 88.5 20.8949 88.5 18.5Z" fill="#DB0A17"/>
<path d="M149.88 105.57C148.718 105.338 147.376 103.812 147.5 102.5C148.5 97.5 147.323 96.8114 153.25 98.65C154.42 99 155.226 99.35 155.45 99.35C155.238 99.3082 154.528 102.204 154.46 102.45C154.03 104.05 153.73 104.67 153.21 105.05C152.58 105.52 150.91 105.78 149.88 105.55V105.57Z" fill="#FF0000"/>
<path d="M153.07 79.75C153.5 79 153.89 77.22 154.27 76.6C154.35 76.4692 148.975 73.4429 148.34 72.86C147.046 71.6735 146.053 70.6821 144.89 69.42C143.64 68.09 141.76 64.72 140.94 62.37C137.47 52.24 140.79 42.17 149.51 36.42C151.34 35.22 153.69 34.17 156.41 33.32C158.41 32.72 158.99 32.64 162.86 32.64C167.06 32.61 167.14 32.61 169.49 33.46C174.69 35.29 178.79 38.43 181.89 42.98C183.77 45.7 185 50.5 185.42 52.21C185.151 51.1493 185.429 52.2463 185.42 52.21C186.168 55.2556 185.566 58.0905 185.12 61.12C184.92 62.5 183.42 65.75 181.92 68C180.99 69.4 177.6 72.75 176.6 73.25C172.41 75.3449 168.5 77 163.54 77.67C161.87 77.75 160.41 77.95 160.32 78.07C160.17 78.32 159.94 79.27 159.57 81.04C158.432 86.4854 152.5 81.5 153.07 79.75ZM177.5 64C180.2 59.57 181.31 53.11 179 48.5C176.17 42.87 170.678 38.2 164.5 38.2C160.253 38.2 156.366 39.788 152.5 41.5C151.3 42 148.47 45.01 147.5 47C146.25 49.55 145.5 50.5 145.5 54.5C145.5 63 151 69.5 158.5 71.5C159 72 165.62 71.8 166.5 71.5C170.774 70.0753 175.098 67.9825 177.5 64Z" fill="#FF0000"/>
<path d="M55.38 18.73C55.6 18.6 56.11 17.8 56.51 16.93C58.2385 13.2569 62.479 9.3865 66.13 7.9C66.56 7.7 66.5 7.5 66.98 7.15C65 4.5 69.35 1.5 71.82 3.97C72.2 4.35 72.29 4.35 73.22 3.89C76.7128 2.1119 79.6685 0.5 83.83 0.5C82.83 0.5 84.83 0.5 83.83 0.5C89.7189 0.5 95.7869 4.393 98.5 9.5C95.3785 12.4342 92.0297 14.9703 89 18C87.612 21.5962 66.3391 23.1563 62 24C60.9072 23.2141 54.6596 19.1622 55.38 18.73Z" fill="#FF0000"/>
<path d="M37.63 163.32C37.23 163.27 36.46 163.12 35.9 162.97C34.95 162.69 34.95 162.69 35.1 161.42C35.467 158.741 38.895 144.98 40.04 144.98C40.17 144.98 40.26 145.11 40.26 145.26C40.26 145.39 40.36 145.46 40.48 145.39C40.61 145.31 41.18 145.42 41.75 145.61C42.32 145.81 43.17 145.99 43.6 145.99C45.93 145.96 48.4 143.52 49.5 140.17C49.9095 138.86 48.921 138.155 49.43 136.79C49.86 135.69 49.88 133.66 50.03 108.49C50.0824 97.5463 48.2214 84.7488 52.09 74.11C54.3411 68 64.76 61.4928 64.76 55.55C64.76 55.08 65.93 55.15 66.11 55.63C66.19 55.85 66.26 74.26 66.26 96.55C66.26 140.43 66.26 140.5 64.91 145.72C64.18 148.6 63.18 151.1 61.74 153.65C60.36 156.07 56.02 160.72 55.11 160.72C53.8691 160.72 57.4971 158.157 54.51 159.71C51.668 161.188 49.1867 162.559 45.86 163.18C44.48 163.43 39.41 163.5 37.63 163.28V163.32Z" fill="#4620AE"/>
<path d="M80.1 126.22C75.38 124.42 72.67 118.32 73.1 110.45C73.45 104.27 75.98 98.93 79.85 96.27C82.52 94.42 87.07 94.22 90.2 95.84C91.97 96.77 94.42 100.41 95.15 103.24C95.5 104.57 95.55 105.54 95.4 108.62C95.32 110.7 95.12 113.07 95 113.94C94.65 116.02 93.55 119.49 93.23 119.49C93.08 119.49 93.03 119.59 93.1 119.71C93.55 120.41 91.4 123.46 89.52 124.84C86.94 126.74 82.95 127.31 80.09 126.22H80.1Z" fill="#4620AE"/>
<path d="M114.13 52.46C114.861 47.0979 123.76 48.2445 123.76 53.68C123.76 60.9825 113.126 59.8296 114.13 52.46Z" fill="#4620AE"/>
<path d="M88.5 26.23C91.0055 21.86 97.697 28.0843 93.42 30.83C90.4986 32.6558 86.9293 29.2864 88.5 26.23Z" fill="#4620AE"/>
<path d="M96.15 25.05C97.1972 21.1469 104.171 25.0482 101.69 28.77C99.3651 32.2363 95.2309 28.4608 96.15 25.05Z" fill="#4620AE"/>
<path d="M49.2 168.07C50.364 166.407 51 165.19 53 162.76C54.2922 161.19 55.8961 158.996 57.34 157.5C61.91 152.72 64.19 147.45 65.12 139.5C65.69 134.75 65.67 56.72 65.12 56.15C64.92 55.95 64.8154 55.679 64.74 55.63C63 54.5 61 52.5 59.31 49.42C59.7481 48.1056 75.91 35.93 63.5 23.5C65.91 22.67 79.4642 20.4232 82.6899 19.89C83.1899 19.59 83.0399 21.49 82.4399 22.74C81.5099 24.69 81.94 28.27 83.37 30.79C90.162 42.8884 94.4413 54.9838 95.6299 66.87C95.6299 69.185 98.6845 72.3824 99.94 74.24C105.57 82.51 111.89 87.89 118.84 90.22C124.29 92.07 130.54 91.95 136.89 89.82C139.244 89.0709 147.359 86.4876 148.15 83.72C148.53 82.55 149.78 83.67 149.78 85.2C149.78 90.6732 148.35 98.5789 147.5 102.5C141.5 104.26 137.745 106.312 133.03 106.96C121.812 108.392 108.75 105.916 100.38 97.96C98.4999 96.19 96.1299 93.01 95.6799 91.64C95.4799 91.07 95.3999 92.69 95.3999 98.36C95.3999 106.31 95.23 107.46 94.47 104.26C93.5806 100.614 91.2494 96.9983 87.5499 95.86C72.0002 91.1803 68.2222 126 83.5 126C87.13 126 91.0499 123.03 92.7499 119C93.6299 116.97 94.1999 115.95 94.3799 116.2C94.5799 116.52 93.7699 119 93.4999 119.5C93.2699 120 93.9999 119.5 88.8799 127.4C88.8142 127.481 87.9999 128.5 88.5099 129.15C88.7599 128.98 92.2099 132.53 93.8099 134.62C98.1299 140.27 100.96 146.5 101.81 152.27C102.31 155.74 101.86 160.02 100.66 163.07C100.403 163.662 101.088 163.262 101.21 163.75C101.3 164.089 88.1337 166.698 86.7699 167.38C83.3407 169.133 79.3519 162.502 80.1799 163.33C80.8099 163.98 82.7599 159.75 82.9599 157.33C83.0322 156.058 82.9999 155.243 82.9999 154.2C82.9999 152.05 81.5999 148.52 79.5799 145.55C78.2499 143.6 77.6999 142.97 74.6299 139.7C72.3299 137.25 72.33 137.25 73.53 139.7C74.21 141.03 75.0499 143.25 75.4299 144.63C76.5314 148.616 76.6791 153.615 75.4299 157.58C75.1821 158.39 72.8944 162.476 73.3399 162.76C77.8502 165.623 65.0996 165.636 57.64 167.27C56.6689 167.481 48.1073 169.642 49.21 168.08L49.2 168.07Z" fill="#743AD9"/>
<path d="M28.5 113.5C27.3286 109.254 27.96 101.32 28.98 93.87C30.53 82.22 29.41 73.17 25.88 69.04C24.4077 67.3171 22.9434 65.8336 20.53 65.22C19.0478 64.86 18.7568 64.74 17.11 65C13.58 65.55 10.68 67.65 9.39 70.55C8.24 73.1 8.76 76.02 10.56 77.35C11.49 78 13.64 78.17 14.63 77.65C15.9769 76.9609 16.0019 74.8218 17.45 73.83C19.3016 72.6047 22.2853 73.3809 23.27 75.31C24.32 77.36 23.3 80.74 20.89 83.13C18.72 85.3 15.54 86.43 12.26 86.16C9.9186 85.9727 7.4449 85.2394 5.55 83.83C5.1533 83.5239 3 81.5 2.77 80.76C2 79.5 1.4805 78.2761 1.21 77.63C0.41 75.75 0.66 69.58 1.61 68.08C2.5 65.5 3.5595 63.8775 5.46 62C7.23 60.25 9.96 58.5 10.89 58.5C12.26 58 13.6053 57.2985 14.96 57.08C17.01 56.73 21.21 56.93 23.01 57.46C25.16 58.09 28.11 59.76 29.98 61.46C33.98 65.09 36.63 71.03 37.48 78.34C37.86 81.56 37.63 90.74 37.1 94.07C36.4358 98.5536 36.3081 103.074 36.19 107.6C36.14 109.3 36.36 110.1 36.74 109.5C36.87 109.3 36.89 108.37 36.82 107.4C38 95.5 45.3056 84.3639 51.46 74.7C53.79 70.95 54.8078 69.102 53.11 74.05C52.76 75.07 52.11 77.3 51.69 79.02C50.89 82.15 50.89 82.15 50.74 109.27C50.59 135.92 50.26 137.64 49.5 139C43.5 126.5 32.5 128 28.5 113.5Z" fill="#743AD9"/>
<path d="M82.5 172.77C82.5 172.157 84.6849 166.546 84.76 166.6C85.23 166.92 85.39 166.92 86.01 166.63C90.5 165.5 97 164 101.48 163.2C101.48 162.899 106.975 162.978 107.5 163C110.595 163.722 115.141 165.949 114.64 169.71C114.483 170.946 113.706 172.082 112.59 172.63C111.66 173.1 111.04 173.13 97.07 173.2C82.69 173.25 82.5 173.25 82.5 172.77Z" fill="#E69F1E"/>
<path d="M43.23 28.94C43.51 28.19 45.83 25.84 46.73 25.36C56.4593 20.3564 70.278 26.959 68.8 39.01C68.5654 40.8865 68.1754 44.0424 65.87 44.19C61.4262 44.4016 41.4121 33.6328 43.23 28.94Z" fill="#E69F1E"/>
<path d="M81.1 25.88C81.02 25.38 81 24.55 81.1 24.05C81.32 22.67 82.4 20.17 82.98 19.73C87 18.5 94.7994 17.1694 98.48 16.65C100 16.5 98.48 16.65 100 16.5C100.2 17 100.61 18.59 100.68 19.27C100.81 20.37 100.78 20.5 100.36 20.5C100.08 20.5 99.61 20.33 99.31 20.1C98.43 19.5 96.23 19.63 93.38 20.45C90.23 21.38 87.66 22.65 85.31 24.48C83.33 25.98 82.06 26.76 81.59 26.76C81.42 26.76 81.21 26.36 81.12 25.88H81.1Z" fill="#E69F1E"/>
<path d="M66.57 173.19C56.75 173.24 51.32 173.19 50.75 173.02C50.25 172.87 49.52 172.42 49.12 172C48.52 171.37 48.42 171.07 48.47 170.08C48.5 168.85 49.02 168 49.72 168C57.5 166.5 66.1118 164.912 73.1 162.83C73.5217 162.71 73.5762 163.09 74.33 162.83C75.46 162.43 77.48 162.53 79.38 163.05C80.619 163.388 81.0708 163.561 82.14 164.3C82.69 164.68 83.64 165.5 84.24 166.1C85.17 167.05 85.37 167.4 85.47 168.48C85.62 170.18 85.44 170.7 84.22 172.03C83.47 172.83 82.89 173.23 82.34 173.3C77 173.3 71.6916 173.159 66.57 173.19Z" fill="#FFD61D"/>
<path d="M34.83 162.63C32.6899 161.784 30.4963 161.22 28.55 159.76C26.7015 158.425 26.01 156.389 26.01 154.61C26.01 153.84 27.46 152.33 28.31 152.21C29.04 152.11 29.06 151.46 28.36 150.63C27.34 149.43 27.68 147.1 29.06 146.16C29.36 145.94 30.04 145.76 30.54 145.76C31.44 145.76 31.44 145.76 31.31 144.46C31.18 142.81 31.78 141.91 33.31 141.49C34.69 141.14 35.16 141.29 36.73 142.64C37.46 143.27 38.56 144.06 39.15 144.41C39.4336 144.575 40 145 40.5 145.39C40.63 145.31 40.58 145.71 40.37 146.29C38.7109 151.019 37.2243 156.413 36 161.31C35.6 162.96 35.6 162.96 34.8 162.64L34.83 162.63Z" fill="#FFD61D"/>
<path d="M87 63C82.0694 61.207 77.9629 58.46 76.34 53.51C75.64 51.48 75.71 46.23 76.44 44.08C77.5915 40.7271 80.5 37 84.19 35.87C85.84 35.59 85.84 35.57 84.49 34.04C82.84 32.16 82.14 30.91 81.54 28.76C81.04 27.01 81.07 25.73 81.59 25.73C81.76 25.73 82.74 25.05 83.76 24.23C87.56 21.15 93.16 18.95 97.24 18.91C99.94 18.88 100.59 19.23 100.96 21.01C101.56 23.76 103.91 27.19 105.61 27.73C106.04 27.88 108.81 28.48 111.79 29.08C115.14 29.76 117.72 30.41 118.64 30.83C120.79 31.81 123.34 33.61 124.67 35.08C127.115 37.7373 129.16 41.947 129.9 45.48C130.4 47.81 130.33 50.98 129.75 53.38C128.53 58.5925 125.289 63.219 120.45 65.6C110.085 70.683 97.3728 66.5959 87 63ZM121.03 57.28C124.98 54.78 122.58 48.98 117.93 49.85C116.66 50.1 115.28 51.43 114.98 52.7C114.68 54.05 115.03 55.6 115.8 56.42C117.4 58.17 119.18 58.45 121.02 57.27L121.03 57.28ZM92.76 30.01C93.64 29.38 94.16 28.01 93.78 27.29C93.35 26.52 92.26 25.77 91.53 25.77C90.58 25.77 89.31 26.65 89.11 27.42C88.86 28.37 89.58 29.72 90.59 30.14C91.67 30.61 91.94 30.59 92.76 30.01ZM100.94 28.03C101.69 26.9 101.67 26.2 100.79 25.28C99.97 24.4 98.96 24.26 97.76 24.88C96.88 25.33 96.53 26.63 97.01 27.76C97.44 28.76 97.91 29.01 99.26 28.93C100.21 28.88 100.46 28.76 100.93 28.03H100.94Z" fill="#FFD61D"/>
<path d="M55.16 49.75C52.78 49.75 49.88 49.62 48.73 49.47C44.0833 48.8155 38.6824 43.5441 37.24 39.11C35.3676 34.017 37.5076 26.3873 40.91 22.54C42.24 20.99 45.01 19.12 46.96 18.44C49.7924 17.4744 54.2507 17.4545 56.89 19.23C57.44 19.58 59.29 20.73 61.02 21.73C63.97 23.48 67.99 26.45 69.17 27.76C70.87 29.66 71.97 32.48 72.17 35.44C72.47 39.57 71.29 43.01 68.64 45.92C66.72 48.05 64.89 49.05 62.21 49.52C59.6871 49.9489 57.8482 49.75 55.16 49.75ZM67.06 42C67.99 40.15 68.39 37.3 68.01 35.2C67.44 32.12 65.73 29.48 63.08 27.63C60.73 25.98 58.76 25.1 56.18 24.6C54.3 24.25 53.71 24.22 52.35 24.47C51.45 24.62 50.37 24.92 49.93 25.1C49.48 25.3 48.66 25.65 48.05 25.9C46.85 26.4 44.33 28.75 43.95 29.75C43.75 30.25 43.8 30.45 44.17 30.7C44.64 31.05 59.85 40.13 61.12 40.85C61.55 41.07 62.67 41.75 63.62 42.37C64.6 42.97 65.6 43.47 65.87 43.42C66.19 43.39 66.6 42.9 67.04 42H67.06Z" fill="#FFD61D"/>
<path d="M145.83 97.2C143.883 96.0316 144.068 93.2523 145.98 92.19C147.11 91.64 147.08 91.64 146.66 90.77C145.704 88.9537 146.436 87.1792 148.01 86.14C149.11 85.41 149.24 85.01 148.53 84.39C147.68 83.62 148.58 80.99 150.01 80.14C153.165 78.3134 163.5 82 162.76 85.32C162.76 86.87 162.13 88.04 161.01 88.62C160.36 88.94 160.28 89.12 160.41 89.7C161.5 90 161.751 93.3121 159.38 94.3C158.68 94.62 158.63 94.87 159.13 95.75C159.33 96.1 159.48 96.85 159.51 97.45C159.51 98.3 159.36 98.68 158.81 99.22C158.01 100.02 156.5 100 155.98 99.95C153.08 99.95 148.357 98.7223 145.83 97.2Z" fill="#F8CB4D"/>
<path d="M158.63 71.65C151 69.6 146 63.5 145.36 55.48C145.01 51.45 146.78 46.78 149.86 43.63C153.326 40.095 159.221 37.6366 164.14 38.12C174.5 37.5 182.98 49.44 180.5 58C179 65 174.57 69.03 167.64 71.3C165.69 71.95 160.46 72.15 158.64 71.65H158.63ZM172.73 62.97C173.5 62 174 61 172.56 59.52C171.41 58.7 170.73 58.64 169.76 59.3C168.61 60.07 168.28 61.22 168.83 62.38C169.58 63.96 171.38 64.23 172.73 62.98V62.97ZM168.827 54.7462C171.107 53.6462 172.27 50.85 172 49C171.635 46.5 170.21 44.16 167.63 43.86C165.93 43.64 164.85 43.99 163.43 45.26C160.78 47.59 160.899 51 162.83 53.08C164.761 55.16 167 55.48 168.86 54.73L168.827 54.7462Z" fill="#EEEEEE" fill-opacity="0.9"/>
<path d="M169 60C170.331 58.2254 171.895 58.4674 173 60C174.105 61.5326 173.417 62.7914 172 63.5C169.607 64.6967 167.669 61.7746 169 60Z" fill="white" fill-opacity="0.95"/>
<path d="M161.5 51C160.632 48.0474 162.618 44.8608 165.5 43.9C169.06 42.7417 172.1 46.1807 172.1 49.5368C172.1 52.8659 168.902 56.1341 165.5 55C163.799 54.1495 162.068 52.9311 161.5 51Z" fill="white" fill-opacity="0.95"/>
</g>
</svg>
